<?xml version="1.0" encoding="UTF-8"?>
<svg id="_레이어_1" data-name="레이어 1" xmlns="http://www.w3.org/2000/svg" version="1.1" viewBox="0 0 566.9 283.5">
  <defs>
    <style>
      .cls-1 {
        fill: #ea5504;
        stroke-width: 0px;
      }
    </style>
  </defs>
  <path class="cls-1" d="M54.6,133.5h31.5v45.5c0,22.9-11.5,36.1-33.6,36.1s-33.6-13.1-33.6-36.1v-74.6c0-22.9,11.5-36.1,33.6-36.1s33.6,13.1,33.6,36.1v13.9h-21.3v-15.4c0-10.2-4.5-14.1-11.7-14.1s-11.7,3.9-11.7,14.1v77.4c0,10.2,4.5,13.9,11.7,13.9s11.7-3.7,11.7-13.9v-26.4h-10.2v-20.5Z"/>
  <path class="cls-1" d="M118.7,165.9l-28.5-95.9h23.6l17,65.3h.4l17-65.3h21.5l-28.5,95.9v47.5h-22.5v-47.5Z"/>
  <path class="cls-1" d="M226.3,171.8h.4l15.2-101.8h31.3v143.4h-21.3v-102.8h-.4l-15.2,102.8h-21.3l-16.4-101.4h-.4v101.4h-19.7V70h31.3l16.4,101.8Z"/>
  <path class="cls-1" d="M312.1,133.7h29.1v20.5h-29.1v59.2h-22.5V70h59.6v20.5h-37.1v43.2Z"/>
  <path class="cls-1" d="M360,70h22.5v122.9h37.1v20.5h-59.6V70Z"/>
  <path class="cls-1" d="M429.5,70h22.5v143.4h-22.5V70Z"/>
  <g>
    <path class="cls-1" d="M471.9,186.8c7.6-14.9,15.2-29.7,22.9-44.8-12.2-23.8-24.4-47.5-36.7-71.7.7,0,1.1-.2,1.5-.2,5.6,0,11.3,0,16.9,0,.7,0,1.5.6,1.9,1.5,7.5,14.5,15,29,22.5,43.7.3.6.4,2.1.3,3.1-.6,4.8-1.3,9.6-1.8,14.6.3-.5.6-1,.8-1.5,10.2-19.8,20.3-39.6,30.5-59.4.8-1.5,1.6-2.2,2.7-2.1,4.4.1,8.8,0,13.1,0,.4,0,.8,0,1.2,0,0,.2.1.4.2.6-25.3,38.8-50.5,77.7-75.8,116.5,0-.1-.1-.3-.2-.4Z"/>
    <path class="cls-1" d="M506.4,166.6c3.1-6.7,6.1-13.3,9.3-20.2,10.8,22.7,21.5,45.4,32.2,68,0,.2,0,.4-.1.6-1.9,0-3.8,0-5.7,0-3.9,0-7.9,0-11.8,0-.5,0-1.2-.4-1.5-1.1-7.4-15.4-14.7-30.8-22.1-46.3,0-.2-.1-.4-.3-1Z"/>
    <path class="cls-1" d="M457.8,214.4c26.4-40.7,52.9-81.4,79.3-122.1,0,.1.1.2.2.3-.5,1.1-1,2.2-1.6,3.2-20,39-40,77.9-60,116.9-.8,1.6-1.6,2.3-2.8,2.3-4.7-.1-9.3,0-14,0-.3,0-.7,0-1,0,0-.2,0-.4-.1-.6Z"/>
  </g>
</svg>